<svg xmlns="http://www.w3.org/2000/svg" xmlns:xlink="http://www.w3.org/1999/xlink" width="500" zoomAndPan="magnify" viewBox="0 0 375 374.999991" height="500" preserveAspectRatio="xMidYMid meet" version="1.0"><defs><g/><clipPath id="d88a2b9e66"><path d="M 1 0.359375 L 18 0.359375 L 18 29 L 1 29 Z M 1 0.359375 " clip-rule="nonzero"/></clipPath><clipPath id="d182bd38bd"><path d="M 0.199219 28 L 19 28 L 19 37.800781 L 0.199219 37.800781 Z M 0.199219 28 " clip-rule="nonzero"/></clipPath><clipPath id="5bb1e2eb93"><rect x="0" width="21" y="0" height="38"/></clipPath></defs><g transform="matrix(1, 0, 0, 1, 181, 165)"><g clip-path="url(#5bb1e2eb93)"><g clip-path="url(#d88a2b9e66)"><g fill="#fdfccf" fill-opacity="1"><g transform="translate(0.508895, 28.141712)"><g><path d="M 14.578125 -9.515625 C 15.484375 -8.828125 16.164062 -8.035156 16.625 -7.140625 C 17.09375 -6.253906 17.328125 -5.257812 17.328125 -4.15625 C 17.328125 -2.726562 16.851562 -1.609375 15.90625 -0.796875 C 14.957031 0.015625 13.664062 0.421875 12.03125 0.421875 C 10.414062 0.421875 9.160156 0.0195312 8.265625 -0.78125 C 7.367188 -1.59375 6.921875 -2.648438 6.921875 -3.953125 C 6.921875 -4.847656 7.1875 -5.6875 7.71875 -6.46875 C 8.25 -7.25 9.195312 -8.109375 10.5625 -9.046875 C 10.0625 -9.203125 9.550781 -9.320312 9.03125 -9.40625 C 8.519531 -9.488281 8.003906 -9.53125 7.484375 -9.53125 C 6.179688 -9.53125 5.226562 -9.3125 4.625 -8.875 C 4.019531 -8.445312 3.71875 -7.757812 3.71875 -6.8125 C 3.71875 -6.175781 3.894531 -5.46875 4.25 -4.6875 L 1.6875 -3.96875 C 1.476562 -4.4375 1.304688 -4.957031 1.171875 -5.53125 C 1.046875 -6.113281 0.984375 -6.632812 0.984375 -7.09375 C 0.984375 -8.601562 1.515625 -9.789062 2.578125 -10.65625 C 3.640625 -11.519531 5.195312 -11.953125 7.25 -11.953125 C 8.207031 -11.953125 9.125 -11.851562 10 -11.65625 C 10.882812 -11.457031 11.722656 -11.164062 12.515625 -10.78125 C 13.222656 -11.488281 13.753906 -12.222656 14.109375 -12.984375 C 14.460938 -13.742188 14.640625 -14.546875 14.640625 -15.390625 C 14.640625 -16.378906 14.382812 -17.234375 13.875 -17.953125 C 13.375 -18.679688 12.617188 -19.21875 11.609375 -19.5625 C 11.742188 -19.09375 11.8125 -18.632812 11.8125 -18.1875 C 11.8125 -16.9375 11.410156 -15.941406 10.609375 -15.203125 C 9.816406 -14.460938 8.726562 -14.09375 7.34375 -14.09375 C 5.988281 -14.09375 4.925781 -14.472656 4.15625 -15.234375 C 3.382812 -15.992188 3 -16.941406 3 -18.078125 C 3 -18.835938 3.148438 -19.5 3.453125 -20.0625 C 3.765625 -20.632812 4.238281 -21.113281 4.875 -21.5 C 4.5 -22.132812 4.3125 -22.867188 4.3125 -23.703125 C 4.3125 -24.835938 4.75 -25.742188 5.625 -26.421875 C 6.5 -27.109375 7.628906 -27.453125 9.015625 -27.453125 C 10.242188 -27.453125 11.257812 -27.195312 12.0625 -26.6875 C 12.875 -26.1875 13.5 -25.378906 13.9375 -24.265625 L 11.390625 -23.609375 C 10.992188 -24.703125 10.21875 -25.25 9.0625 -25.25 C 8.40625 -25.25 7.867188 -25.082031 7.453125 -24.75 C 7.035156 -24.425781 6.828125 -23.984375 6.828125 -23.421875 C 6.828125 -23.003906 6.945312 -22.625 7.1875 -22.28125 C 7.632812 -22.351562 8.109375 -22.390625 8.609375 -22.390625 C 11.273438 -22.390625 13.394531 -21.757812 14.96875 -20.5 C 16.539062 -19.238281 17.328125 -17.582031 17.328125 -15.53125 C 17.328125 -14.28125 17.097656 -13.175781 16.640625 -12.21875 C 16.191406 -11.269531 15.503906 -10.367188 14.578125 -9.515625 Z M 9.078125 -20.046875 C 8.773438 -20.078125 8.425781 -20.09375 8.03125 -20.09375 C 7.238281 -20.09375 6.613281 -19.921875 6.15625 -19.578125 C 5.695312 -19.234375 5.46875 -18.78125 5.46875 -18.21875 C 5.46875 -17.644531 5.628906 -17.195312 5.953125 -16.875 C 6.273438 -16.550781 6.742188 -16.390625 7.359375 -16.390625 C 8.742188 -16.390625 9.4375 -17.097656 9.4375 -18.515625 C 9.4375 -19.054688 9.316406 -19.566406 9.078125 -20.046875 Z M 12.71875 -7.9375 C 11.5 -7.070312 10.675781 -6.359375 10.25 -5.796875 C 9.820312 -5.234375 9.609375 -4.65625 9.609375 -4.0625 C 9.609375 -3.445312 9.816406 -2.960938 10.234375 -2.609375 C 10.660156 -2.253906 11.273438 -2.078125 12.078125 -2.078125 C 12.898438 -2.078125 13.53125 -2.269531 13.96875 -2.65625 C 14.414062 -3.039062 14.640625 -3.597656 14.640625 -4.328125 C 14.640625 -5.023438 14.476562 -5.675781 14.15625 -6.28125 C 13.832031 -6.882812 13.351562 -7.4375 12.71875 -7.9375 Z M 9.171875 0.8125 Z M 13.265625 -28.984375 Z M 12.890625 -16.65625 Z M 12.890625 -16.65625 "/></g></g></g></g><g clip-path="url(#d182bd38bd)"><g fill="#fdfccf" fill-opacity="1"><g transform="translate(18.841146, 28.141712)"><g><path d="M -15.59375 1.453125 C -15 3.242188 -14.175781 4.582031 -13.125 5.46875 C -12.070312 6.363281 -10.722656 6.8125 -9.078125 6.8125 C -7.410156 6.8125 -6.0625 6.367188 -5.03125 5.484375 C -4 4.597656 -3.179688 3.253906 -2.578125 1.453125 L -0.15625 2.46875 C -1 4.789062 -2.15625 6.53125 -3.625 7.6875 C -5.09375 8.84375 -6.910156 9.421875 -9.078125 9.421875 C -11.253906 9.421875 -13.066406 8.847656 -14.515625 7.703125 C -15.960938 6.566406 -17.125 4.828125 -18 2.484375 Z M 0 0.8125 Z M -12.328125 12.859375 Z M -12.015625 2.03125 Z M -18.328125 0 Z M -12.109375 3.953125 Z M -12.109375 3.953125 "/></g></g></g></g><g fill="#fdfccf" fill-opacity="1"><g transform="translate(16.441585, 28.141712)"><g/></g></g></g></g></svg>