<svg xmlns="http://www.w3.org/2000/svg" xmlns:xlink="http://www.w3.org/1999/xlink" width="500" zoomAndPan="magnify" viewBox="0 0 375 374.999991" height="500" preserveAspectRatio="xMidYMid meet" version="1.0"><defs><g/></defs><g fill="#ffffff" fill-opacity="1"><g transform="translate(176.680656, 191.654063)"><g><path d="M 17.203125 -11.21875 C 18.273438 -10.414062 19.082031 -9.488281 19.625 -8.4375 C 20.175781 -7.382812 20.453125 -6.207031 20.453125 -4.90625 C 20.453125 -3.226562 19.894531 -1.90625 18.78125 -0.9375 C 17.664062 0.0195312 16.140625 0.5 14.203125 0.5 C 12.296875 0.5 10.8125 0.0234375 9.75 -0.921875 C 8.695312 -1.878906 8.171875 -3.128906 8.171875 -4.671875 C 8.171875 -5.722656 8.484375 -6.707031 9.109375 -7.625 C 9.734375 -8.550781 10.851562 -9.570312 12.46875 -10.6875 C 11.882812 -10.863281 11.285156 -11 10.671875 -11.09375 C 10.066406 -11.195312 9.457031 -11.25 8.84375 -11.25 C 7.300781 -11.25 6.171875 -10.992188 5.453125 -10.484375 C 4.734375 -9.972656 4.375 -9.15625 4.375 -8.03125 C 4.375 -7.289062 4.585938 -6.457031 5.015625 -5.53125 L 2 -4.6875 C 1.738281 -5.238281 1.53125 -5.851562 1.375 -6.53125 C 1.226562 -7.207031 1.15625 -7.820312 1.15625 -8.375 C 1.15625 -10.15625 1.78125 -11.554688 3.03125 -12.578125 C 4.289062 -13.597656 6.128906 -14.109375 8.546875 -14.109375 C 9.691406 -14.109375 10.78125 -13.992188 11.8125 -13.765625 C 12.851562 -13.535156 13.84375 -13.1875 14.78125 -12.71875 C 15.613281 -13.550781 16.238281 -14.421875 16.65625 -15.328125 C 17.070312 -16.234375 17.28125 -17.175781 17.28125 -18.15625 C 17.28125 -19.320312 16.976562 -20.332031 16.375 -21.1875 C 15.78125 -22.050781 14.890625 -22.6875 13.703125 -23.09375 C 13.867188 -22.53125 13.953125 -21.988281 13.953125 -21.46875 C 13.953125 -19.988281 13.476562 -18.8125 12.53125 -17.9375 C 11.59375 -17.070312 10.304688 -16.640625 8.671875 -16.640625 C 7.066406 -16.640625 5.804688 -17.085938 4.890625 -17.984375 C 3.984375 -18.878906 3.53125 -19.992188 3.53125 -21.328125 C 3.53125 -22.222656 3.710938 -23.007812 4.078125 -23.6875 C 4.441406 -24.363281 5 -24.929688 5.75 -25.390625 C 5.3125 -26.128906 5.09375 -26.992188 5.09375 -27.984375 C 5.09375 -29.316406 5.609375 -30.382812 6.640625 -31.1875 C 7.671875 -32 9.003906 -32.40625 10.640625 -32.40625 C 12.085938 -32.40625 13.289062 -32.101562 14.25 -31.5 C 15.207031 -30.90625 15.941406 -29.953125 16.453125 -28.640625 L 13.453125 -27.859375 C 12.972656 -29.160156 12.054688 -29.8125 10.703125 -29.8125 C 9.921875 -29.8125 9.28125 -29.613281 8.78125 -29.21875 C 8.289062 -28.832031 8.046875 -28.3125 8.046875 -27.65625 C 8.046875 -27.15625 8.1875 -26.707031 8.46875 -26.3125 C 9.007812 -26.382812 9.578125 -26.421875 10.171875 -26.421875 C 13.304688 -26.421875 15.800781 -25.675781 17.65625 -24.1875 C 19.519531 -22.707031 20.453125 -20.753906 20.453125 -18.328125 C 20.453125 -16.859375 20.1875 -15.554688 19.65625 -14.421875 C 19.125 -13.296875 18.304688 -12.226562 17.203125 -11.21875 Z M 10.71875 -23.65625 C 10.363281 -23.695312 9.945312 -23.71875 9.46875 -23.71875 C 8.539062 -23.71875 7.804688 -23.515625 7.265625 -23.109375 C 6.722656 -22.703125 6.453125 -22.164062 6.453125 -21.5 C 6.453125 -20.820312 6.640625 -20.296875 7.015625 -19.921875 C 7.398438 -19.546875 7.957031 -19.359375 8.6875 -19.359375 C 10.320312 -19.359375 11.140625 -20.1875 11.140625 -21.84375 C 11.140625 -22.488281 11 -23.09375 10.71875 -23.65625 Z M 15.015625 -9.375 C 13.578125 -8.351562 12.601562 -7.507812 12.09375 -6.84375 C 11.59375 -6.175781 11.34375 -5.492188 11.34375 -4.796875 C 11.34375 -4.066406 11.59375 -3.492188 12.09375 -3.078125 C 12.59375 -2.660156 13.316406 -2.453125 14.265625 -2.453125 C 15.234375 -2.453125 15.976562 -2.679688 16.5 -3.140625 C 17.019531 -3.597656 17.28125 -4.253906 17.28125 -5.109375 C 17.28125 -5.929688 17.085938 -6.695312 16.703125 -7.40625 C 16.328125 -8.113281 15.765625 -8.769531 15.015625 -9.375 Z M 10.8125 0.953125 Z M 15.65625 -34.203125 Z M 15.21875 -19.65625 Z M 15.21875 -19.65625 "/></g></g></g><g fill="#ffffff" fill-opacity="1"><g transform="translate(198.316328, 191.654063)"><g><path d="M -18.40625 1.703125 C -17.707031 3.816406 -16.734375 5.398438 -15.484375 6.453125 C -14.242188 7.503906 -12.65625 8.03125 -10.71875 8.03125 C -8.75 8.03125 -7.15625 7.507812 -5.9375 6.46875 C -4.71875 5.425781 -3.75 3.835938 -3.03125 1.703125 L -0.1875 2.921875 C -1.175781 5.660156 -2.535156 7.710938 -4.265625 9.078125 C -6.003906 10.441406 -8.15625 11.125 -10.71875 11.125 C -13.28125 11.125 -15.414062 10.453125 -17.125 9.109375 C -18.84375 7.765625 -20.21875 5.707031 -21.25 2.9375 Z M 0 0.953125 Z M -14.546875 15.1875 Z M -14.1875 2.40625 Z M -21.640625 0 Z M -14.296875 4.671875 Z M -14.296875 4.671875 "/></g></g></g></svg>