<svg xmlns="http://www.w3.org/2000/svg" xmlns:xlink="http://www.w3.org/1999/xlink" width="500" zoomAndPan="magnify" viewBox="0 0 375 374.999991" height="500" preserveAspectRatio="xMidYMid meet" version="1.0"><defs><g/></defs><g fill="#fdfccf" fill-opacity="1"><g transform="translate(127.211375, 196.124987)"><g><path d="M 17.203125 -11.21875 C 18.273438 -10.414062 19.082031 -9.488281 19.625 -8.4375 C 20.175781 -7.382812 20.453125 -6.207031 20.453125 -4.90625 C 20.453125 -3.226562 19.894531 -1.90625 18.78125 -0.9375 C 17.664062 0.0195312 16.140625 0.5 14.203125 0.5 C 12.296875 0.5 10.8125 0.0234375 9.75 -0.921875 C 8.695312 -1.878906 8.171875 -3.128906 8.171875 -4.671875 C 8.171875 -5.722656 8.484375 -6.707031 9.109375 -7.625 C 9.734375 -8.550781 10.851562 -9.570312 12.46875 -10.6875 C 11.882812 -10.863281 11.285156 -11 10.671875 -11.09375 C 10.066406 -11.195312 9.457031 -11.25 8.84375 -11.25 C 7.300781 -11.25 6.171875 -10.992188 5.453125 -10.484375 C 4.734375 -9.972656 4.375 -9.15625 4.375 -8.03125 C 4.375 -7.289062 4.585938 -6.457031 5.015625 -5.53125 L 2 -4.6875 C 1.738281 -5.238281 1.53125 -5.851562 1.375 -6.53125 C 1.226562 -7.207031 1.15625 -7.820312 1.15625 -8.375 C 1.15625 -10.15625 1.78125 -11.554688 3.03125 -12.578125 C 4.289062 -13.597656 6.128906 -14.109375 8.546875 -14.109375 C 9.691406 -14.109375 10.78125 -13.992188 11.8125 -13.765625 C 12.851562 -13.535156 13.84375 -13.1875 14.78125 -12.71875 C 15.613281 -13.550781 16.238281 -14.421875 16.65625 -15.328125 C 17.070312 -16.234375 17.28125 -17.175781 17.28125 -18.15625 C 17.28125 -19.320312 16.976562 -20.332031 16.375 -21.1875 C 15.78125 -22.050781 14.890625 -22.6875 13.703125 -23.09375 C 13.867188 -22.53125 13.953125 -21.988281 13.953125 -21.46875 C 13.953125 -19.988281 13.476562 -18.8125 12.53125 -17.9375 C 11.59375 -17.070312 10.304688 -16.640625 8.671875 -16.640625 C 7.066406 -16.640625 5.804688 -17.085938 4.890625 -17.984375 C 3.984375 -18.878906 3.53125 -19.992188 3.53125 -21.328125 C 3.53125 -22.222656 3.710938 -23.007812 4.078125 -23.6875 C 4.441406 -24.363281 5 -24.929688 5.75 -25.390625 C 5.3125 -26.128906 5.09375 -26.992188 5.09375 -27.984375 C 5.09375 -29.316406 5.609375 -30.382812 6.640625 -31.1875 C 7.671875 -32 9.003906 -32.40625 10.640625 -32.40625 C 12.085938 -32.40625 13.289062 -32.101562 14.25 -31.5 C 15.207031 -30.90625 15.941406 -29.953125 16.453125 -28.640625 L 13.453125 -27.859375 C 12.972656 -29.160156 12.054688 -29.8125 10.703125 -29.8125 C 9.921875 -29.8125 9.28125 -29.613281 8.78125 -29.21875 C 8.289062 -28.832031 8.046875 -28.3125 8.046875 -27.65625 C 8.046875 -27.15625 8.1875 -26.707031 8.46875 -26.3125 C 9.007812 -26.382812 9.578125 -26.421875 10.171875 -26.421875 C 13.304688 -26.421875 15.800781 -25.675781 17.65625 -24.1875 C 19.519531 -22.707031 20.453125 -20.753906 20.453125 -18.328125 C 20.453125 -16.859375 20.1875 -15.554688 19.65625 -14.421875 C 19.125 -13.296875 18.304688 -12.226562 17.203125 -11.21875 Z M 10.71875 -23.65625 C 10.363281 -23.695312 9.945312 -23.71875 9.46875 -23.71875 C 8.539062 -23.71875 7.804688 -23.515625 7.265625 -23.109375 C 6.722656 -22.703125 6.453125 -22.164062 6.453125 -21.5 C 6.453125 -20.820312 6.640625 -20.296875 7.015625 -19.921875 C 7.398438 -19.546875 7.957031 -19.359375 8.6875 -19.359375 C 10.320312 -19.359375 11.140625 -20.1875 11.140625 -21.84375 C 11.140625 -22.488281 11 -23.09375 10.71875 -23.65625 Z M 15.015625 -9.375 C 13.578125 -8.351562 12.601562 -7.507812 12.09375 -6.84375 C 11.59375 -6.175781 11.34375 -5.492188 11.34375 -4.796875 C 11.34375 -4.066406 11.59375 -3.492188 12.09375 -3.078125 C 12.59375 -2.660156 13.316406 -2.453125 14.265625 -2.453125 C 15.234375 -2.453125 15.976562 -2.679688 16.5 -3.140625 C 17.019531 -3.597656 17.28125 -4.253906 17.28125 -5.109375 C 17.28125 -5.929688 17.085938 -6.695312 16.703125 -7.40625 C 16.328125 -8.113281 15.765625 -8.769531 15.015625 -9.375 Z M 10.8125 0.953125 Z M 15.65625 -34.203125 Z M 15.21875 -19.65625 Z M 15.21875 -19.65625 "/></g></g></g><g fill="#fdfccf" fill-opacity="1"><g transform="translate(148.847047, 196.124987)"><g><path d="M -18.40625 1.703125 C -17.707031 3.816406 -16.734375 5.398438 -15.484375 6.453125 C -14.242188 7.503906 -12.65625 8.03125 -10.71875 8.03125 C -8.75 8.03125 -7.15625 7.507812 -5.9375 6.46875 C -4.71875 5.425781 -3.75 3.835938 -3.03125 1.703125 L -0.1875 2.921875 C -1.175781 5.660156 -2.535156 7.710938 -4.265625 9.078125 C -6.003906 10.441406 -8.15625 11.125 -10.71875 11.125 C -13.28125 11.125 -15.414062 10.453125 -17.125 9.109375 C -18.84375 7.765625 -20.21875 5.707031 -21.25 2.9375 Z M 0 0.953125 Z M -14.546875 15.1875 Z M -14.1875 2.40625 Z M -21.640625 0 Z M -14.296875 4.671875 Z M -14.296875 4.671875 "/></g></g></g><g fill="#fdfccf" fill-opacity="1"><g transform="translate(148.847047, 196.124987)"><g><path d="M 25.8125 -8.046875 C 24.6875 -7.515625 23.300781 -7.25 21.65625 -7.25 L 11.9375 -7.25 L 11.9375 -10.171875 L 21.71875 -10.171875 C 20.5625 -10.617188 19.671875 -11.242188 19.046875 -12.046875 C 18.429688 -12.859375 18.125 -13.800781 18.125 -14.875 C 18.125 -16.3125 18.660156 -17.46875 19.734375 -18.34375 C 20.816406 -19.21875 22.207031 -19.65625 23.90625 -19.65625 C 25.863281 -19.65625 27.390625 -19.132812 28.484375 -18.09375 C 29.585938 -17.0625 30.140625 -15.71875 30.140625 -14.0625 C 30.140625 -12.363281 29.488281 -10.890625 28.1875 -9.640625 C 29.070312 -8.816406 29.515625 -7.828125 29.515625 -6.671875 C 29.515625 -4.335938 28.4375 -2.554688 26.28125 -1.328125 C 24.132812 -0.109375 20.925781 0.5 16.65625 0.5 C 11.726562 0.5 7.953125 -0.484375 5.328125 -2.453125 C 2.710938 -4.421875 1.40625 -7.1875 1.40625 -10.75 C 1.40625 -13.476562 2.09375 -15.644531 3.46875 -17.25 C 4.851562 -18.851562 6.648438 -19.65625 8.859375 -19.65625 C 10.429688 -19.65625 11.6875 -19.207031 12.625 -18.3125 C 13.570312 -17.414062 14.046875 -16.207031 14.046875 -14.6875 C 14.046875 -12.976562 13.515625 -11.644531 12.453125 -10.6875 C 11.390625 -9.726562 9.882812 -9.25 7.9375 -9.25 C 6.75 -9.25 5.609375 -9.546875 4.515625 -10.140625 C 4.679688 -7.703125 5.796875 -5.832031 7.859375 -4.53125 C 9.929688 -3.238281 12.863281 -2.59375 16.65625 -2.59375 C 19.695312 -2.59375 22.054688 -2.957031 23.734375 -3.6875 C 25.421875 -4.425781 26.265625 -5.4375 26.265625 -6.71875 C 26.265625 -7.195312 26.113281 -7.640625 25.8125 -8.046875 Z M 4.671875 -12.9375 C 5.554688 -12.320312 6.582031 -12.015625 7.75 -12.015625 C 8.8125 -12.015625 9.609375 -12.226562 10.140625 -12.65625 C 10.671875 -13.09375 10.9375 -13.71875 10.9375 -14.53125 C 10.9375 -15.257812 10.726562 -15.832031 10.3125 -16.25 C 9.894531 -16.664062 9.347656 -16.875 8.671875 -16.875 C 7.640625 -16.875 6.773438 -16.539062 6.078125 -15.875 C 5.378906 -15.207031 4.910156 -14.226562 4.671875 -12.9375 Z M 25.515625 -11.140625 C 26.429688 -11.953125 26.890625 -12.925781 26.890625 -14.0625 C 26.890625 -14.894531 26.628906 -15.566406 26.109375 -16.078125 C 25.585938 -16.597656 24.882812 -16.859375 24 -16.859375 C 23.15625 -16.859375 22.484375 -16.65625 21.984375 -16.25 C 21.484375 -15.851562 21.234375 -15.320312 21.234375 -14.65625 C 21.234375 -13.945312 21.554688 -13.316406 22.203125 -12.765625 C 22.847656 -12.210938 23.910156 -11.691406 25.390625 -11.203125 Z M 25.515625 -11.140625 "/></g></g></g><g fill="#fdfccf" fill-opacity="1"><g transform="translate(180.262966, 196.124987)"><g><path d="M 4.5 -7.703125 C 5.050781 -6.054688 6.257812 -4.789062 8.125 -3.90625 C 9.988281 -3.03125 12.378906 -2.59375 15.296875 -2.59375 C 18.484375 -2.59375 21.003906 -3.109375 22.859375 -4.140625 C 24.722656 -5.171875 25.867188 -6.671875 26.296875 -8.640625 C 25.148438 -7.578125 23.765625 -7.046875 22.140625 -7.046875 C 20.585938 -7.046875 19.332031 -7.484375 18.375 -8.359375 C 17.425781 -9.242188 16.953125 -10.414062 16.953125 -11.875 C 16.953125 -12.976562 17.300781 -13.945312 18 -14.78125 C 18.707031 -15.625 19.660156 -16.160156 20.859375 -16.390625 C 19.828125 -16.660156 18.5 -16.796875 16.875 -16.796875 L 17.765625 -19.6875 C 21.578125 -19.144531 24.441406 -18.03125 26.359375 -16.34375 C 28.273438 -14.65625 29.234375 -12.398438 29.234375 -9.578125 C 29.234375 -6.460938 28.050781 -4.003906 25.6875 -2.203125 C 23.320312 -0.398438 19.929688 0.5 15.515625 0.5 C 11.023438 0.5 7.550781 -0.382812 5.09375 -2.15625 C 2.632812 -3.9375 1.40625 -6.332031 1.40625 -9.34375 C 1.40625 -11.632812 2.078125 -13.515625 3.421875 -14.984375 C 4.765625 -16.453125 6.488281 -17.1875 8.59375 -17.1875 C 10.21875 -17.1875 11.5 -16.742188 12.4375 -15.859375 C 13.382812 -14.972656 13.859375 -13.800781 13.859375 -12.34375 C 13.859375 -10.707031 13.300781 -9.414062 12.1875 -8.46875 C 11.082031 -7.519531 9.5625 -7.046875 7.625 -7.046875 C 6.425781 -7.046875 5.382812 -7.265625 4.5 -7.703125 Z M 4.3125 -10.59375 C 5.15625 -10.0625 6.101562 -9.796875 7.15625 -9.796875 C 9.53125 -9.796875 10.71875 -10.632812 10.71875 -12.3125 C 10.71875 -13 10.515625 -13.515625 10.109375 -13.859375 C 9.703125 -14.210938 9.132812 -14.390625 8.40625 -14.390625 C 7.351562 -14.390625 6.460938 -14.054688 5.734375 -13.390625 C 5.015625 -12.722656 4.539062 -11.789062 4.3125 -10.59375 Z M 26.125 -12.203125 C 25.757812 -12.890625 25.273438 -13.425781 24.671875 -13.8125 C 24.066406 -14.195312 23.398438 -14.390625 22.671875 -14.390625 C 21.910156 -14.390625 21.285156 -14.1875 20.796875 -13.78125 C 20.304688 -13.382812 20.0625 -12.820312 20.0625 -12.09375 C 20.0625 -11.382812 20.285156 -10.820312 20.734375 -10.40625 C 21.191406 -10 21.832031 -9.796875 22.65625 -9.796875 C 23.488281 -9.796875 24.210938 -10.003906 24.828125 -10.421875 C 25.441406 -10.847656 25.875 -11.441406 26.125 -12.203125 Z M 15.3125 0.953125 Z M 30.640625 0.953125 Z M 15.34375 -16.703125 Z M 14.71875 -23.28125 C 14.976562 -22.289062 15.226562 -21.535156 15.46875 -21.015625 C 15.71875 -20.503906 15.976562 -20.148438 16.25 -19.953125 C 16.519531 -19.753906 16.863281 -19.65625 17.28125 -19.65625 C 17.789062 -19.65625 18.273438 -19.816406 18.734375 -20.140625 C 19.203125 -20.460938 19.859375 -21.164062 20.703125 -22.25 L 21.90625 -23.828125 C 23.269531 -25.609375 24.507812 -26.832031 25.625 -27.5 C 26.738281 -28.175781 28.117188 -28.523438 29.765625 -28.546875 L 29.984375 -25.5 C 29.066406 -25.445312 28.328125 -25.3125 27.765625 -25.09375 C 27.203125 -24.875 26.679688 -24.554688 26.203125 -24.140625 C 25.722656 -23.722656 25.0625 -22.972656 24.21875 -21.890625 L 23.3125 -20.71875 C 22.238281 -19.320312 21.222656 -18.300781 20.265625 -17.65625 C 19.304688 -17.019531 18.234375 -16.703125 17.046875 -16.703125 C 15.546875 -16.703125 14.359375 -17.1875 13.484375 -18.15625 C 12.609375 -19.125 11.929688 -20.476562 11.453125 -22.21875 Z M 20.0625 -34.203125 Z M 20.0625 -34.203125 "/></g></g></g><g fill="#fdfccf" fill-opacity="1"><g transform="translate(210.698938, 196.124987)"><g><path d="M 12.046875 -9.953125 C 12.765625 -10.785156 13.125 -11.753906 13.125 -12.859375 C 13.125 -14.078125 12.734375 -15.046875 11.953125 -15.765625 C 11.171875 -16.492188 10.078125 -16.859375 8.671875 -16.859375 C 7.328125 -16.859375 6.257812 -16.507812 5.46875 -15.8125 C 4.675781 -15.125 4.28125 -14.21875 4.28125 -13.09375 C 4.28125 -12.40625 4.472656 -11.703125 4.859375 -10.984375 C 5.253906 -10.273438 5.859375 -9.53125 6.671875 -8.75 C 7.492188 -7.976562 8.785156 -6.910156 10.546875 -5.546875 C 13.316406 -3.441406 15.253906 -1.503906 16.359375 0.265625 C 17.472656 2.035156 18.03125 4.054688 18.03125 6.328125 C 18.03125 9.128906 17.03125 11.304688 15.03125 12.859375 C 13.03125 14.410156 10.238281 15.1875 6.65625 15.1875 C 4.207031 15.1875 2.304688 14.726562 0.953125 13.8125 C -0.398438 12.894531 -1.078125 11.707031 -1.078125 10.25 C -1.078125 9.0625 -0.722656 8.101562 -0.015625 7.375 C 0.679688 6.644531 1.753906 6 3.203125 5.4375 C 4.429688 4.945312 5.242188 4.535156 5.640625 4.203125 C 6.046875 3.867188 6.25 3.421875 6.25 2.859375 C 6.25 2.335938 6.046875 1.9375 5.640625 1.65625 C 5.234375 1.375 4.644531 1.234375 3.875 1.234375 C 3.09375 1.234375 2.5 1.367188 2.09375 1.640625 C 1.6875 1.921875 1.484375 2.296875 1.484375 2.765625 C 1.484375 3.128906 1.554688 3.484375 1.703125 3.828125 L -0.984375 4.4375 C -1.117188 4.113281 -1.234375 3.75 -1.328125 3.34375 C -1.429688 2.9375 -1.484375 2.59375 -1.484375 2.3125 C -1.484375 1.207031 -1.007812 0.304688 -0.0625 -0.390625 C 0.875 -1.097656 2.207031 -1.453125 3.9375 -1.453125 C 5.613281 -1.453125 6.921875 -1.03125 7.859375 -0.1875 C 8.796875 0.644531 9.265625 1.65625 9.265625 2.84375 C 9.265625 3.84375 8.960938 4.703125 8.359375 5.421875 C 7.765625 6.148438 6.570312 6.894531 4.78125 7.65625 C 3.59375 8.132812 2.8125 8.539062 2.4375 8.875 C 2.070312 9.21875 1.890625 9.632812 1.890625 10.125 C 1.890625 10.800781 2.332031 11.34375 3.21875 11.75 C 4.113281 12.164062 5.320312 12.375 6.84375 12.375 C 9.351562 12.375 11.3125 11.851562 12.71875 10.8125 C 14.132812 9.769531 14.84375 8.25 14.84375 6.25 C 14.84375 5.03125 14.609375 3.945312 14.140625 3 C 13.679688 2.050781 12.9375 1.046875 11.90625 -0.015625 C 10.875 -1.078125 9.351562 -2.398438 7.34375 -3.984375 C 5.019531 -5.773438 3.410156 -7.359375 2.515625 -8.734375 C 1.617188 -10.109375 1.171875 -11.570312 1.171875 -13.125 C 1.171875 -15.070312 1.859375 -16.644531 3.234375 -17.84375 C 4.609375 -19.050781 6.445312 -19.65625 8.75 -19.65625 C 11.070312 -19.65625 12.898438 -19.03125 14.234375 -17.78125 C 15.566406 -16.53125 16.234375 -14.898438 16.234375 -12.890625 C 16.234375 -11.222656 15.71875 -9.710938 14.6875 -8.359375 Z M 10 0 Z M 10.03125 -6.78125 Z M 5.125 8.25 Z M 5.125 8.25 "/></g></g></g><g fill="#fdfccf" fill-opacity="1"><g transform="translate(227.838364, 196.124987)"><g><path d="M 9.953125 -16.828125 C 11.609375 -16.828125 13.101562 -16.457031 14.4375 -15.71875 C 15.769531 -14.976562 16.800781 -13.9375 17.53125 -12.59375 C 18.269531 -11.257812 18.640625 -9.78125 18.640625 -8.15625 C 18.640625 -5.613281 17.832031 -3.535156 16.21875 -1.921875 C 14.613281 -0.304688 12.523438 0.5 9.953125 0.5 C 8.316406 0.5 6.832031 0.140625 5.5 -0.578125 C 4.175781 -1.296875 3.140625 -2.328125 2.390625 -3.671875 C 1.648438 -5.015625 1.28125 -6.507812 1.28125 -8.15625 C 1.28125 -9.78125 1.648438 -11.257812 2.390625 -12.59375 C 3.140625 -13.925781 4.171875 -14.960938 5.484375 -15.703125 C 6.804688 -16.453125 8.296875 -16.828125 9.953125 -16.828125 Z M 9.953125 -2.59375 C 11.660156 -2.59375 12.992188 -3.101562 13.953125 -4.125 C 14.921875 -5.15625 15.40625 -6.503906 15.40625 -8.171875 C 15.40625 -9.804688 14.910156 -11.140625 13.921875 -12.171875 C 12.929688 -13.210938 11.609375 -13.734375 9.953125 -13.734375 C 8.316406 -13.734375 7.003906 -13.21875 6.015625 -12.1875 C 5.023438 -11.15625 4.53125 -9.816406 4.53125 -8.171875 C 4.53125 -6.515625 5.007812 -5.171875 5.96875 -4.140625 C 6.9375 -3.109375 8.265625 -2.59375 9.953125 -2.59375 Z M 10.28125 -19.65625 Z M 10.28125 -19.65625 "/></g></g></g></svg>