<svg xmlns="http://www.w3.org/2000/svg" xmlns:xlink="http://www.w3.org/1999/xlink" width="500" zoomAndPan="magnify" viewBox="0 0 375 374.999991" height="500" preserveAspectRatio="xMidYMid meet" version="1.0"><defs><g/><clipPath id="6fc63b443f"><path d="M 9 0.398438 L 132 0.398438 L 132 213 L 9 213 Z M 9 0.398438 " clip-rule="nonzero"/></clipPath><clipPath id="239cec73be"><path d="M 1 206 L 139 206 L 139 277.839844 L 1 277.839844 Z M 1 206 " clip-rule="nonzero"/></clipPath><clipPath id="eaec01efa4"><rect x="0" width="152" y="0" height="278"/></clipPath></defs><g transform="matrix(1, 0, 0, 1, 110, 50)"><g clip-path="url(#eaec01efa4)"><g clip-path="url(#6fc63b443f)"><g fill="#fdfccf" fill-opacity="1"><g transform="translate(1.938017, 206.69882)"><g><path d="M 108.921875 -71.078125 C 115.734375 -65.960938 120.863281 -60.078125 124.3125 -53.421875 C 127.757812 -46.773438 129.484375 -39.3125 129.484375 -31.03125 C 129.484375 -20.40625 125.953125 -12.046875 118.890625 -5.953125 C 111.835938 0.128906 102.1875 3.171875 89.9375 3.171875 C 77.84375 3.171875 68.445312 0.148438 61.75 -5.890625 C 55.0625 -11.941406 51.71875 -19.835938 51.71875 -29.578125 C 51.71875 -36.222656 53.703125 -42.46875 57.671875 -48.3125 C 61.648438 -54.15625 68.753906 -60.601562 78.984375 -67.65625 C 75.253906 -68.789062 71.460938 -69.660156 67.609375 -70.265625 C 63.753906 -70.878906 59.878906 -71.1875 55.984375 -71.1875 C 46.242188 -71.1875 39.101562 -69.582031 34.5625 -66.375 C 30.019531 -63.175781 27.75 -58.007812 27.75 -50.875 C 27.75 -46.164062 29.085938 -40.890625 31.765625 -35.046875 L 12.65625 -29.6875 C 11.03125 -33.175781 9.726562 -37.070312 8.75 -41.375 C 7.78125 -45.675781 7.296875 -49.570312 7.296875 -53.0625 C 7.296875 -64.332031 11.269531 -73.191406 19.21875 -79.640625 C 27.175781 -86.097656 38.820312 -89.328125 54.15625 -89.328125 C 61.375 -89.328125 68.269531 -88.59375 74.84375 -87.125 C 81.414062 -85.664062 87.660156 -83.476562 93.578125 -80.5625 C 98.859375 -85.832031 102.816406 -91.328125 105.453125 -97.046875 C 108.085938 -102.765625 109.40625 -108.75 109.40625 -115 C 109.40625 -122.382812 107.519531 -128.796875 103.75 -134.234375 C 99.976562 -139.671875 94.316406 -143.6875 86.765625 -146.28125 C 87.828125 -142.707031 88.359375 -139.257812 88.359375 -135.9375 C 88.359375 -126.601562 85.375 -119.175781 79.40625 -113.65625 C 73.445312 -108.144531 65.273438 -105.390625 54.890625 -105.390625 C 44.742188 -105.390625 36.789062 -108.226562 31.03125 -113.90625 C 25.269531 -119.582031 22.390625 -126.640625 22.390625 -135.078125 C 22.390625 -140.765625 23.546875 -145.734375 25.859375 -149.984375 C 28.171875 -154.242188 31.679688 -157.835938 36.390625 -160.765625 C 33.628906 -165.460938 32.25 -170.9375 32.25 -177.1875 C 32.25 -185.625 35.515625 -192.398438 42.046875 -197.515625 C 48.578125 -202.628906 57.035156 -205.1875 67.421875 -205.1875 C 76.585938 -205.1875 84.191406 -203.296875 90.234375 -199.515625 C 96.273438 -195.742188 100.921875 -189.679688 104.171875 -181.328125 L 85.1875 -176.453125 C 82.1875 -184.648438 76.382812 -188.75 67.78125 -188.75 C 62.832031 -188.75 58.796875 -187.507812 55.671875 -185.03125 C 52.546875 -182.5625 50.984375 -179.257812 50.984375 -175.125 C 50.984375 -171.957031 51.878906 -169.117188 53.671875 -166.609375 C 57.078125 -167.085938 60.644531 -167.328125 64.375 -167.328125 C 84.25 -167.328125 100.066406 -162.617188 111.828125 -153.203125 C 123.597656 -143.796875 129.484375 -131.425781 129.484375 -116.09375 C 129.484375 -106.769531 127.800781 -98.535156 124.4375 -91.390625 C 121.070312 -84.253906 115.898438 -77.484375 108.921875 -71.078125 Z M 67.90625 -149.8125 C 65.632812 -150.050781 63 -150.171875 60 -150.171875 C 54.070312 -150.171875 49.40625 -148.890625 46 -146.328125 C 42.59375 -143.773438 40.890625 -140.390625 40.890625 -136.171875 C 40.890625 -131.878906 42.082031 -128.535156 44.46875 -126.140625 C 46.863281 -123.742188 50.375 -122.546875 55 -122.546875 C 65.382812 -122.546875 70.578125 -127.820312 70.578125 -138.375 C 70.578125 -142.425781 69.6875 -146.238281 67.90625 -149.8125 Z M 95.046875 -59.390625 C 85.960938 -52.898438 79.816406 -47.546875 76.609375 -43.328125 C 73.398438 -39.109375 71.796875 -34.804688 71.796875 -30.421875 C 71.796875 -25.796875 73.378906 -22.164062 76.546875 -19.53125 C 79.710938 -16.894531 84.296875 -15.578125 90.296875 -15.578125 C 96.460938 -15.578125 101.1875 -17.015625 104.46875 -19.890625 C 107.757812 -22.773438 109.40625 -26.9375 109.40625 -32.375 C 109.40625 -37.5625 108.207031 -42.40625 105.8125 -46.90625 C 103.414062 -51.414062 99.828125 -55.578125 95.046875 -59.390625 Z M 68.515625 6.078125 Z M 99.1875 -216.625 Z M 96.390625 -124.5 Z M 96.390625 -124.5 "/></g></g></g></g><g clip-path="url(#239cec73be)"><g fill="#fdfccf" fill-opacity="1"><g transform="translate(138.962036, 206.69882)"><g><path d="M -116.578125 10.828125 C -112.117188 24.210938 -105.953125 34.234375 -98.078125 40.890625 C -90.210938 47.546875 -80.15625 50.875 -67.90625 50.875 C -55.414062 50.875 -45.316406 47.566406 -37.609375 40.953125 C -29.898438 34.335938 -23.773438 24.296875 -19.234375 10.828125 L -1.21875 18.5 C -7.46875 35.863281 -16.085938 48.863281 -27.078125 57.5 C -38.066406 66.144531 -51.675781 70.46875 -67.90625 70.46875 C -84.132812 70.46875 -97.660156 66.207031 -108.484375 57.6875 C -119.316406 49.164062 -128.019531 36.144531 -134.59375 18.625 Z M 0 6.078125 Z M -92.125 96.140625 Z M -89.8125 15.21875 Z M -137.03125 0 Z M -90.546875 29.578125 Z M -90.546875 29.578125 "/></g></g></g></g><g fill="#fdfccf" fill-opacity="1"><g transform="translate(121.026573, 206.69882)"><g/></g></g></g></g></svg>